<?xml version="1.0" standalone="no"?><!DOCTYPE svg PUBLIC "-//W3C//DTD SVG 1.1//EN" "http://www.w3.org/Graphics/SVG/1.1/DTD/svg11.dtd"><svg t="1677657531714" class="icon" viewBox="0 0 1024 1024" version="1.1" xmlns="http://www.w3.org/2000/svg" p-id="5316" xmlns:xlink="http://www.w3.org/1999/xlink" width="32" height="32"><path d="M511.999488 56.482409c-246.99951 0-447.230857 200.231347-447.230857 447.230857 0 246.998487 200.23237 447.231881 447.230857 447.231881 246.99951 0 447.229834-200.233394 447.229834-447.231881C959.229323 256.713756 758.998999 56.482409 511.999488 56.482409zM738.772328 688.274726c-5.240351 30.433126-27.981285 45.650713-68.234057 45.650713l-61.84965 0c-24.542976 0-41.395806-5.240351-50.557466-15.711843-9.165754-8.834202-13.747095-25.031093-13.747095-48.592718L544.38406 518.930853c-32.397874 1.14508-61.526285 2.204202-87.377046 3.187599-1.803066 53.014424-12.270465 94.655823-31.413454 124.926244-25.855878 41.555441-72.816422 74.118068-140.881634 97.677647-6.548136-10.796904-14.7264-22.908756-24.543999-36.32123 65.120137-20.294209 108.974947-48.592718 131.555222-84.915995 16.196891-25.687032 25.115004-58.904575 26.750247-99.644441-21.597901 0.983397-40.168862 1.962701-55.714929 2.946099-9.489118 0.655939-22.576181 3.273557-39.269375 7.853875l-20.122293-42.214451c17.340947-3.925403 32.558533-11.782348 45.64969-23.561625 32.066323-30.267351 62.421678-63.320141 91.057879-99.152231L269.494339 369.712343l0-36.323277 231.203756 0c-11.456936-20.286022-22.089088-37.306674-31.905664-51.049676l34.851763-19.634176c11.780301 16.036231 24.211425 34.851763 37.306674 56.449663l-26.018583 14.234189 225.311559 0 0 36.323277L493.334383 369.712343c-31.254841 36.811394-68.234057 76.080769-110.940718 117.805056 101.616352-2.122337 182.52508-4.00522 242.739487-5.646604-18.491143-22.248723-37.390585-44.093241-56.697303-65.531506l28.472472-21.10569c50.393737 50.722218 90.810239 95.55531 121.245412 134.494157l-34.360576 25.036209c-10.149151-13.251815-20.457938-26.342971-30.927383-39.269375-24.215518 0.653893-47.124274 1.314948-68.721151 1.966795l0 145.781224c0 14.724353 1.798972 24.051789 5.399987 27.979238 4.252861 5.888104 12.923334 8.836249 26.01449 8.836249l46.636157 0c21.596877 0 33.701566-8.182356 36.323277-24.542976 2.286066-13.743002 4.085038-35.176151 5.399987-64.300468 11.780301 4.579295 26.174126 9.487072 43.194778 14.7264C744.820068 648.847761 742.042815 669.620877 738.772328 688.274726z" fill="#515151" p-id="5317"></path></svg>